<svg width="18" height="19" viewBox="0 0 18 19" fill="none" xmlns="http://www.w3.org/2000/svg">
<path d="M2.72827 5.14648H4.18272H15.8183" stroke="#5C5653" stroke-width="1.45445" stroke-linecap="round" stroke-linejoin="round"/>
<path d="M6.36454 5.14621V3.69176C6.36454 3.30601 6.51777 2.93607 6.79054 2.6633C7.0633 2.39054 7.43324 2.2373 7.81899 2.2373H10.7279C11.1136 2.2373 11.4836 2.39054 11.7563 2.6633C12.0291 2.93607 12.1823 3.30601 12.1823 3.69176V5.14621M14.364 5.14621V15.3274C14.364 15.7131 14.2108 16.083 13.938 16.3558C13.6653 16.6286 13.2953 16.7818 12.9096 16.7818H5.63731C5.25157 16.7818 4.88162 16.6286 4.60886 16.3558C4.3361 16.083 4.18286 15.7131 4.18286 15.3274V5.14621H14.364Z" stroke="#5C5653" stroke-width="1.45445" stroke-linecap="round" stroke-linejoin="round"/>
<path d="M7.81885 8.78223V13.1456" stroke="#5C5653" stroke-width="1.45445" stroke-linecap="round" stroke-linejoin="round"/>
<path d="M10.7278 8.78223V13.1456" stroke="#5C5653" stroke-width="1.45445" stroke-linecap="round" stroke-linejoin="round"/>
</svg>
