<svg width="64" height="64" viewBox="0 0 64 64" fill="none" xmlns="http://www.w3.org/2000/svg">
<path d="M19.7335 26.6668H23.9735V40.0001C23.9735 41.4668 25.1735 42.6668 26.6402 42.6668H37.3068C38.7735 42.6668 39.9735 41.4668 39.9735 40.0001V26.6668H44.2135C46.5868 26.6668 47.7868 23.7868 46.1068 22.1068L33.8668 9.86676C33.6201 9.61956 33.3271 9.42343 33.0045 9.28961C32.6819 9.15579 32.3361 9.08691 31.9868 9.08691C31.6376 9.08691 31.2918 9.15579 30.9692 9.28961C30.6466 9.42343 30.3535 9.61956 30.1068 9.86676L17.8668 22.1068C16.1868 23.7868 17.3602 26.6668 19.7335 26.6668ZM13.3335 50.6668C13.3335 52.1334 14.5335 53.3334 16.0002 53.3334H48.0002C49.4668 53.3334 50.6668 52.1334 50.6668 50.6668C50.6668 49.2001 49.4668 48.0001 48.0002 48.0001H16.0002C14.5335 48.0001 13.3335 49.2001 13.3335 50.6668Z" fill="#599895"/>
</svg>
