<svg width="132" height="21" viewBox="0 0 132 21" fill="none" xmlns="http://www.w3.org/2000/svg">
<path d="M0.472907 20.4902V1.55424H4.47646V9.90346H4.72611L11.5405 1.55424H16.3392L9.31217 10.0329L16.4224 20.4902H11.6329L6.44588 12.705L4.47646 15.109V20.4902H0.472907ZM24.766 20.7676C23.3298 20.7676 22.0877 20.4625 21.0398 19.8523C19.9981 19.2358 19.1937 18.379 18.6266 17.2818C18.0595 16.1785 17.7759 14.8994 17.7759 13.4447C17.7759 11.9777 18.0595 10.6955 18.6266 9.59834C19.1937 8.49497 19.9981 7.63817 21.0398 7.02792C22.0877 6.41152 23.3298 6.10332 24.766 6.10332C26.2022 6.10332 27.4412 6.41152 28.4829 7.02792C29.5308 7.63817 30.3383 8.49497 30.9054 9.59834C31.4725 10.6955 31.756 11.9777 31.756 13.4447C31.756 14.8994 31.4725 16.1785 30.9054 17.2818C30.3383 18.379 29.5308 19.2358 28.4829 19.8523C27.4412 20.4625 26.2022 20.7676 24.766 20.7676ZM24.7845 17.7164C25.4379 17.7164 25.9834 17.5315 26.421 17.1616C26.8587 16.7856 27.1885 16.274 27.4104 15.6268C27.6384 14.9796 27.7525 14.243 27.7525 13.417C27.7525 12.591 27.6384 11.8544 27.4104 11.2072C27.1885 10.5599 26.8587 10.0483 26.421 9.67231C25.9834 9.2963 25.4379 9.1083 24.7845 9.1083C24.1249 9.1083 23.5702 9.2963 23.1202 9.67231C22.6764 10.0483 22.3404 10.5599 22.1124 11.2072C21.8905 11.8544 21.7795 12.591 21.7795 13.417C21.7795 14.243 21.8905 14.9796 22.1124 15.6268C22.3404 16.274 22.6764 16.7856 23.1202 17.1616C23.5702 17.5315 24.1249 17.7164 24.7845 17.7164ZM39.2975 1.55424V20.4902H35.3587V1.55424H39.2975ZM47.4331 1.55424V20.4902H43.4942V1.55424H47.4331ZM58.102 20.7676C56.6412 20.7676 55.3837 20.4717 54.3296 19.88C53.2817 19.2821 52.4742 18.4376 51.9072 17.3466C51.3401 16.2494 51.0565 14.9518 51.0565 13.454C51.0565 11.9931 51.3401 10.711 51.9072 9.60758C52.4742 8.50422 53.2725 7.64433 54.3019 7.02792C55.3375 6.41152 56.5518 6.10332 57.9449 6.10332C58.8818 6.10332 59.754 6.25434 60.5615 6.55637C61.3752 6.85225 62.084 7.29914 62.6881 7.89706C63.2983 8.49497 63.773 9.24699 64.112 10.1531C64.451 11.0531 64.6205 12.1071 64.6205 13.3153V14.3971H52.6284V11.9561H60.9128C60.9128 11.389 60.7896 10.8866 60.543 10.449C60.2964 10.0113 59.9543 9.66923 59.5167 9.42266C59.0852 9.16994 58.5828 9.04357 58.0096 9.04357C57.4117 9.04357 56.8816 9.18226 56.4192 9.45965C55.9631 9.73087 55.6056 10.0976 55.3467 10.5599C55.0878 11.0161 54.9553 11.5246 54.9491 12.0855V14.4063C54.9491 15.109 55.0786 15.7162 55.3375 16.2278C55.6025 16.7394 55.9754 17.1339 56.4562 17.4113C56.937 17.6887 57.5072 17.8274 58.1668 17.8274C58.6044 17.8274 59.0051 17.7657 59.3688 17.6424C59.7324 17.5192 60.0437 17.3342 60.3026 17.0877C60.5615 16.8411 60.7587 16.5391 60.8944 16.1816L64.5373 16.422C64.3524 17.2973 63.9733 18.0616 63.4 18.715C62.833 19.3622 62.0994 19.8677 61.1995 20.2313C60.3057 20.5889 59.2732 20.7676 58.102 20.7676ZM71.8014 16.4035L71.8107 11.6787H72.3839L76.933 6.28824H81.4543L75.3427 13.4262H74.4088L71.8014 16.4035ZM68.2324 20.4902V1.55424H72.1713V20.4902H68.2324ZM77.1087 20.4902L72.9294 14.3046L75.5553 11.5215L81.7225 20.4902H77.1087ZM91.9823 6.28824V9.24699H83.4297V6.28824H91.9823ZM85.3714 2.88568H89.3102V16.1261C89.3102 16.4898 89.3657 16.7733 89.4766 16.9767C89.5876 17.174 89.7417 17.3127 89.9389 17.3928C90.1423 17.4729 90.3766 17.513 90.6416 17.513C90.8265 17.513 91.0115 17.4976 91.1964 17.4668C91.3813 17.4298 91.5231 17.402 91.6217 17.3835L92.2412 20.3146C92.0439 20.3762 91.7666 20.4471 91.409 20.5272C91.0515 20.6135 90.617 20.6659 90.1054 20.6844C89.1561 20.7214 88.3239 20.595 87.6089 20.3053C86.9 20.0156 86.3484 19.5656 85.9539 18.9554C85.5594 18.3451 85.3652 17.5746 85.3714 16.6439V2.88568ZM95.5896 20.4902V6.28824H99.5284V20.4902H95.5896ZM97.5682 4.45751C96.9827 4.45751 96.4803 4.26334 96.0611 3.87501C95.6481 3.48051 95.4416 3.00896 95.4416 2.46036C95.4416 1.91792 95.6481 1.45253 96.0611 1.0642C96.4803 0.669696 96.9827 0.472446 97.5682 0.472446C98.1538 0.472446 98.6531 0.669696 99.0661 1.0642C99.4853 1.45253 99.6948 1.91792 99.6948 2.46036C99.6948 3.00896 99.4853 3.48051 99.0661 3.87501C98.6531 4.26334 98.1538 4.45751 97.5682 4.45751ZM116.966 6.28824L112 20.4902H107.562L102.597 6.28824H106.758L109.707 16.4497H109.855L112.796 6.28824H116.966ZM123.691 20.7584C122.785 20.7584 121.977 20.6012 121.269 20.2868C120.56 19.9663 119.999 19.4947 119.586 18.8722C119.179 18.2434 118.976 17.4606 118.976 16.5237C118.976 15.7347 119.12 15.072 119.41 14.5358C119.7 13.9995 120.094 13.568 120.594 13.2413C121.093 12.9146 121.66 12.668 122.295 12.5016C122.936 12.3352 123.608 12.2181 124.311 12.1503C125.137 12.064 125.802 11.9838 126.308 11.9099C126.813 11.8297 127.18 11.7126 127.408 11.5585C127.636 11.4044 127.75 11.1763 127.75 10.8743V10.8188C127.75 10.2332 127.565 9.78018 127.195 9.45965C126.832 9.13912 126.314 8.97885 125.642 8.97885C124.933 8.97885 124.369 9.13603 123.95 9.4504C123.531 9.7586 123.253 10.1469 123.118 10.6154L119.475 10.3195C119.66 9.45656 120.023 8.71071 120.566 8.08198C121.108 7.44708 121.808 6.96012 122.665 6.6211C123.528 6.27591 124.526 6.10332 125.66 6.10332C126.449 6.10332 127.205 6.19578 127.926 6.3807C128.653 6.56562 129.297 6.85225 129.858 7.24058C130.425 7.62892 130.872 8.12821 131.199 8.73845C131.526 9.34253 131.689 10.0668 131.689 10.9113V20.4902H127.953V18.5208H127.843C127.614 18.9646 127.309 19.356 126.927 19.6951C126.545 20.0279 126.086 20.2899 125.55 20.481C125.013 20.6659 124.394 20.7584 123.691 20.7584ZM124.819 18.04C125.398 18.04 125.91 17.926 126.354 17.6979C126.798 17.4637 127.146 17.1493 127.399 16.7548C127.651 16.3603 127.778 15.9134 127.778 15.4141V13.907C127.655 13.9872 127.485 14.0611 127.269 14.1289C127.06 14.1906 126.822 14.2491 126.557 14.3046C126.292 14.3539 126.027 14.4001 125.762 14.4433C125.497 14.4803 125.257 14.5142 125.041 14.545C124.579 14.6128 124.175 14.7207 123.83 14.8686C123.485 15.0165 123.216 15.2169 123.025 15.4696C122.834 15.7162 122.739 16.0244 122.739 16.3942C122.739 16.9305 122.933 17.3404 123.321 17.6239C123.716 17.9013 124.215 18.04 124.819 18.04Z" fill="#CE7540"/>
</svg>
