<svg width="168" height="26" viewBox="0 0 168 26" fill="none" xmlns="http://www.w3.org/2000/svg">
<path d="M0.278961 25.4277V2.16351H5.19762V12.4211H5.50432L13.8763 2.16351H19.7718L11.1386 12.5802L19.8741 25.4277H13.9899L7.61719 15.863L5.19762 18.8165V25.4277H0.278961ZM54.4104 2.16351V25.4277H49.5713V2.16351H54.4104ZM64.4055 2.16351V25.4277H59.5664V2.16351H64.4055ZM77.5131 25.7685C75.7183 25.7685 74.1734 25.405 72.8784 24.678C71.591 23.9434 70.599 22.9059 69.9023 21.5655C69.2055 20.2175 68.8572 18.6234 68.8572 16.7832C68.8572 14.9884 69.2055 13.4132 69.9023 12.0576C70.599 10.7021 71.5797 9.64563 72.8444 8.88833C74.1166 8.13103 75.6085 7.75238 77.32 7.75238C78.4711 7.75238 79.5427 7.93792 80.5347 8.30899C81.5344 8.6725 82.4053 9.22154 83.1474 9.95612C83.8971 10.6907 84.4803 11.6146 84.8968 12.7278C85.3133 13.8335 85.5215 15.1285 85.5215 16.6128V17.9418H70.7883V14.9429H80.9664C80.9664 14.2462 80.8149 13.629 80.512 13.0913C80.2091 12.5537 79.7888 12.1334 79.2511 11.8304C78.721 11.5199 78.1038 11.3647 77.3995 11.3647C76.6649 11.3647 76.0137 11.5351 75.4457 11.8759C74.8853 12.2091 74.446 12.6597 74.128 13.2276C73.8099 13.7881 73.6471 14.4128 73.6395 15.102V17.9532C73.6395 18.8165 73.7986 19.5625 74.1166 20.191C74.4423 20.8196 74.9004 21.3042 75.4911 21.645C76.0818 21.9858 76.7823 22.1562 77.5926 22.1562C78.1303 22.1562 78.6225 22.0805 79.0694 21.929C79.5162 21.7776 79.8986 21.5504 80.2167 21.2474C80.5347 20.9445 80.7771 20.5734 80.9437 20.1342L85.4193 20.4296C85.1921 21.5049 84.7264 22.444 84.0221 23.2467C83.3254 24.0419 82.4242 24.6629 81.3185 25.1097C80.2204 25.5489 78.952 25.7685 77.5131 25.7685ZM94.3438 20.4068L94.3551 14.6021H95.0594L100.648 7.97957H106.203L98.6945 16.7491H97.5471L94.3438 20.4068ZM89.959 25.4277V2.16351H94.7982V25.4277H89.959ZM100.864 25.4277L95.7296 17.8282L98.9557 14.409L106.532 25.4277H100.864ZM119.137 7.97957V11.6146H108.63V7.97957H119.137ZM111.015 3.79928H115.855V20.0661C115.855 20.5129 115.923 20.8612 116.059 21.1111C116.195 21.3535 116.385 21.5239 116.627 21.6223C116.877 21.7208 117.165 21.77 117.49 21.77C117.718 21.77 117.945 21.751 118.172 21.7132C118.399 21.6677 118.573 21.6337 118.694 21.6109L119.456 25.2119C119.213 25.2876 118.872 25.3747 118.433 25.4732C117.994 25.5792 117.46 25.6436 116.831 25.6663C115.665 25.7117 114.643 25.5565 113.764 25.2005C112.894 24.8446 112.216 24.2918 111.731 23.5421C111.246 22.7923 111.008 21.8457 111.015 20.7022V3.79928ZM123.569 25.4277V7.97957H128.408V25.4277H123.569ZM126 5.73039C125.281 5.73039 124.664 5.49184 124.149 5.01474C123.641 4.53007 123.387 3.95074 123.387 3.27674C123.387 2.61032 123.641 2.03856 124.149 1.56146C124.664 1.07679 125.281 0.834452 126 0.834452C126.72 0.834452 127.333 1.07679 127.84 1.56146C128.355 2.03856 128.613 2.61032 128.613 3.27674C128.613 3.95074 128.355 4.53007 127.84 5.01474C127.333 5.49184 126.72 5.73039 126 5.73039ZM149.831 7.97957L143.731 25.4277H138.279L132.178 7.97957H137.29L140.914 20.4636H141.096L144.708 7.97957H149.831ZM158.094 25.7572C156.981 25.7572 155.989 25.564 155.118 25.1778C154.247 24.784 153.558 24.2047 153.05 23.4398C152.55 22.6674 152.301 21.7056 152.301 20.5545C152.301 19.5852 152.478 18.7711 152.834 18.1122C153.19 17.4534 153.675 16.9233 154.288 16.5219C154.902 16.1205 155.599 15.8176 156.379 15.6131C157.166 15.4087 157.992 15.2648 158.855 15.1815C159.87 15.0755 160.688 14.977 161.309 14.8861C161.93 14.7877 162.38 14.6438 162.66 14.4545C162.941 14.2651 163.081 13.9849 163.081 13.6139V13.5457C163.081 12.8263 162.853 12.2697 162.399 11.8759C161.952 11.4821 161.316 11.2852 160.491 11.2852C159.62 11.2852 158.927 11.4783 158.412 11.8645C157.897 12.2432 157.556 12.7203 157.39 13.2958L152.914 12.9323C153.141 11.8721 153.588 10.9558 154.254 10.1833C154.921 9.40329 155.78 8.80502 156.833 8.38851C157.893 7.96442 159.12 7.75238 160.513 7.75238C161.483 7.75238 162.41 7.86597 163.297 8.09316C164.19 8.32035 164.982 8.6725 165.671 9.14959C166.367 9.62669 166.916 10.2401 167.318 10.9898C167.719 11.732 167.92 12.6218 167.92 13.6593V25.4277H163.331V23.0082H163.194C162.914 23.5534 162.539 24.0343 162.07 24.4508C161.6 24.8598 161.036 25.1816 160.377 25.4164C159.718 25.6436 158.957 25.7572 158.094 25.7572ZM159.48 22.4175C160.192 22.4175 160.82 22.2774 161.365 21.9972C161.911 21.7094 162.339 21.3232 162.649 20.8385C162.96 20.3538 163.115 19.8048 163.115 19.1914V17.3398C162.963 17.4382 162.755 17.5291 162.49 17.6124C162.233 17.6881 161.941 17.7601 161.615 17.8282C161.29 17.8888 160.964 17.9456 160.638 17.9986C160.313 18.0441 160.017 18.0857 159.752 18.1236C159.184 18.2069 158.688 18.3394 158.264 18.5212C157.84 18.7029 157.511 18.949 157.276 19.2595C157.041 19.5625 156.924 19.9411 156.924 20.3955C156.924 21.0543 157.162 21.5579 157.639 21.9063C158.124 22.2471 158.738 22.4175 159.48 22.4175Z" fill="#DD7C42"/>
<path d="M44.3763 13.9772L44.4099 21.6639C44.4099 21.7984 44.4003 21.9232 44.3859 22.0528V22.8306C44.3859 23.8917 43.5265 24.7511 42.4654 24.7511H41.6972C41.6444 24.7511 41.5916 24.7079 41.5388 24.7463C41.4715 24.7079 41.4043 24.7511 41.3371 24.7511H38.6244C37.5634 24.7511 36.704 23.8917 36.704 22.8306V18.6056C36.704 17.7558 36.0174 17.0692 35.1676 17.0692H32.0948C31.245 17.0692 30.5584 17.7558 30.5584 18.6056V22.8306C30.5584 23.8917 29.699 24.7511 28.6379 24.7511H25.9541C25.882 24.7511 25.81 24.7463 25.738 24.7415C25.6804 24.7463 25.6228 24.7511 25.5652 24.7511H24.797C23.7364 24.7511 22.8765 23.8917 22.8765 22.8306V17.4533C22.8765 17.4101 22.8779 17.3621 22.8808 17.3188V13.9772H21.3425C20.4768 13.9772 19.8037 13.3002 19.8037 12.436C19.8037 12.0039 19.9479 11.6198 20.2843 11.2837L32.5941 0.55381C32.9302 0.217053 33.3143 0.168945 33.6504 0.168945C33.9865 0.168945 34.3706 0.265161 34.6634 0.505702L39.7767 5.00376V3.24172C39.7767 2.39334 40.4633 1.70533 41.3131 1.70533H42.8495C43.6993 1.70533 44.3859 2.39334 44.3859 3.24172V9.05118L46.9209 11.2837C47.305 11.6198 47.5019 12.0039 47.449 12.436C47.449 13.3002 46.7289 13.9772 45.9127 13.9772H44.3763Z" fill="#DD7C42"/>
</svg>
