<svg width="54" height="49" viewBox="0 0 54 49" fill="none" xmlns="http://www.w3.org/2000/svg">
<path d="M47.9813 27.4527L48.0469 42.4621C48.0469 42.7246 48.0281 42.9684 48 43.2215V44.7402C48 46.8121 46.3219 48.4902 44.25 48.4902H42.75C42.6469 48.4902 42.5438 48.4059 42.4406 48.4809C42.3094 48.4059 42.1781 48.4902 42.0469 48.4902H36.75C34.6781 48.4902 33 46.8121 33 44.7402V36.4902C33 34.8309 31.6594 33.4902 30 33.4902H24C22.3406 33.4902 21 34.8309 21 36.4902V44.7402C21 46.8121 19.3219 48.4902 17.25 48.4902H12.0094C11.8688 48.4902 11.7281 48.4809 11.5875 48.4715C11.475 48.4809 11.3625 48.4902 11.25 48.4902H9.75C7.67906 48.4902 6 46.8121 6 44.7402V34.2402C6 34.1559 6.00281 34.0621 6.00844 33.9777V27.4527H3.00469C1.31438 27.4527 0 26.1309 0 24.4434C0 23.5996 0.281625 22.8496 0.938438 22.1934L24.975 1.24173C25.6313 0.584172 26.3813 0.490234 27.0375 0.490234C27.6938 0.490234 28.4438 0.678109 29.0156 1.1478L39 9.93086V6.49023C39 4.83367 40.3406 3.49023 42 3.49023H45C46.6594 3.49023 48 4.83367 48 6.49023V17.834L52.95 22.1934C53.7 22.8496 54.0844 23.5996 53.9813 24.4434C53.9813 26.1309 52.575 27.4527 50.9813 27.4527H47.9813Z" fill="#CE7540"/>
</svg>
